<?xml version="1.0" encoding="UTF-8"?>
<svg xmlns="http://www.w3.org/2000/svg" xmlns:xlink="http://www.w3.org/1999/xlink" width="2069.28" height="2069.28" viewBox="0 0 2069.28 2069.28">
<defs>
<clipPath id="clip-0">
<path clip-rule="nonzero" d="M 1166 314 L 1791 314 L 1791 938 L 1166 938 Z M 1166 314 "/>
</clipPath>
<clipPath id="clip-1">
<path clip-rule="evenodd" d="M 1403.699219 323.210938 C 1237.128906 364.289062 1134.449219 534.199219 1175.53125 700.769531 C 1216.609375 867.351562 1386.511719 970.019531 1553.089844 928.941406 C 1719.660156 887.859375 1822.339844 717.960938 1781.261719 551.378906 C 1740.179688 384.808594 1570.28125 282.128906 1403.699219 323.210938 "/>
</clipPath>
<linearGradient id="linear-pattern-0" gradientUnits="userSpaceOnUse" x1="-0.536902" y1="0" x2="1.669829" y2="0" gradientTransform="matrix(311.926, -311.521, 311.521, 311.926, 1301.7, 802.54)">
<stop offset="0" stop-color="rgb(97.624207%, 71.235657%, 19.413757%)" stop-opacity="1"/>
<stop offset="0.125" stop-color="rgb(97.624207%, 71.235657%, 19.413757%)" stop-opacity="1"/>
<stop offset="0.1875" stop-color="rgb(97.624207%, 71.235657%, 19.413757%)" stop-opacity="1"/>
<stop offset="0.21875" stop-color="rgb(97.624207%, 71.235657%, 19.413757%)" stop-opacity="1"/>
<stop offset="0.234375" stop-color="rgb(97.624207%, 71.235657%, 19.413757%)" stop-opacity="1"/>
<stop offset="0.242188" stop-color="rgb(97.624207%, 71.235657%, 19.413757%)" stop-opacity="1"/>
<stop offset="0.246094" stop-color="rgb(97.546387%, 70.274353%, 19.287109%)" stop-opacity="1"/>
<stop offset="0.25" stop-color="rgb(97.468567%, 69.313049%, 19.161987%)" stop-opacity="1"/>
<stop offset="0.253906" stop-color="rgb(97.361755%, 67.99469%, 19.212341%)" stop-opacity="1"/>
<stop offset="0.257813" stop-color="rgb(97.254944%, 66.676331%, 19.264221%)" stop-opacity="1"/>
<stop offset="0.261719" stop-color="rgb(97.148132%, 65.359497%, 19.160461%)" stop-opacity="1"/>
<stop offset="0.265625" stop-color="rgb(97.042847%, 64.044189%, 19.059753%)" stop-opacity="1"/>
<stop offset="0.269531" stop-color="rgb(96.948242%, 62.892151%, 19.107056%)" stop-opacity="1"/>
<stop offset="0.273438" stop-color="rgb(96.855164%, 61.740112%, 19.155884%)" stop-opacity="1"/>
<stop offset="0.277344" stop-color="rgb(96.749878%, 60.429382%, 19.062805%)" stop-opacity="1"/>
<stop offset="0.28125" stop-color="rgb(96.643066%, 59.120178%, 18.971252%)" stop-opacity="1"/>
<stop offset="0.285156" stop-color="rgb(96.536255%, 57.804871%, 19.029236%)" stop-opacity="1"/>
<stop offset="0.289063" stop-color="rgb(96.429443%, 56.489563%, 19.087219%)" stop-opacity="1"/>
<stop offset="0.292969" stop-color="rgb(96.324158%, 55.177307%, 19.004822%)" stop-opacity="1"/>
<stop offset="0.296875" stop-color="rgb(96.217346%, 53.866577%, 18.92395%)" stop-opacity="1"/>
<stop offset="0.300781" stop-color="rgb(96.124268%, 52.720642%, 18.978882%)" stop-opacity="1"/>
<stop offset="0.304688" stop-color="rgb(96.031189%, 51.574707%, 19.032288%)" stop-opacity="1"/>
<stop offset="0.308594" stop-color="rgb(95.924377%, 50.265503%, 18.959045%)" stop-opacity="1"/>
<stop offset="0.3125" stop-color="rgb(95.819092%, 48.957825%, 18.888855%)" stop-opacity="1"/>
<stop offset="0.316406" stop-color="rgb(95.71228%, 47.647095%, 18.890381%)" stop-opacity="1"/>
<stop offset="0.320313" stop-color="rgb(95.605469%, 46.336365%, 18.891907%)" stop-opacity="1"/>
<stop offset="0.324219" stop-color="rgb(95.51239%, 45.196533%, 18.885803%)" stop-opacity="1"/>
<stop offset="0.328125" stop-color="rgb(95.419312%, 44.056702%, 18.881226%)" stop-opacity="1"/>
<stop offset="0.332031" stop-color="rgb(95.314026%, 42.749023%, 18.867493%)" stop-opacity="1"/>
<stop offset="0.335938" stop-color="rgb(95.207214%, 41.442871%, 18.855286%)" stop-opacity="1"/>
<stop offset="0.339844" stop-color="rgb(95.100403%, 40.133667%, 18.885803%)" stop-opacity="1"/>
<stop offset="0.34375" stop-color="rgb(94.995117%, 38.824463%, 18.916321%)" stop-opacity="1"/>
<stop offset="0.347656" stop-color="rgb(94.902039%, 37.692261%, 18.881226%)" stop-opacity="1"/>
<stop offset="0.351563" stop-color="rgb(94.80896%, 36.557007%, 18.847656%)" stop-opacity="1"/>
<stop offset="0.355469" stop-color="rgb(94.702148%, 35.247803%, 18.904114%)" stop-opacity="1"/>
<stop offset="0.359375" stop-color="rgb(94.596863%, 33.938599%, 18.962097%)" stop-opacity="1"/>
<stop offset="0.363281" stop-color="rgb(94.490051%, 32.640076%, 18.927002%)" stop-opacity="1"/>
<stop offset="0.367188" stop-color="rgb(94.384766%, 31.341553%, 18.894958%)" stop-opacity="1"/>
<stop offset="0.371094" stop-color="rgb(94.291687%, 30.200195%, 18.963623%)" stop-opacity="1"/>
<stop offset="0.375" stop-color="rgb(94.198608%, 29.058838%, 19.033813%)" stop-opacity="1"/>
<stop offset="0.378906" stop-color="rgb(94.091797%, 27.761841%, 19.007874%)" stop-opacity="1"/>
<stop offset="0.382813" stop-color="rgb(93.986511%, 26.467896%, 18.986511%)" stop-opacity="1"/>
<stop offset="0.386719" stop-color="rgb(93.8797%, 25.158691%, 19.068909%)" stop-opacity="1"/>
<stop offset="0.390625" stop-color="rgb(93.772888%, 23.849487%, 19.152832%)" stop-opacity="1"/>
<stop offset="0.394531" stop-color="rgb(93.681335%, 22.72644%, 19.126892%)" stop-opacity="1"/>
<stop offset="0.398438" stop-color="rgb(93.588257%, 21.601868%, 19.104004%)" stop-opacity="1"/>
<stop offset="0.402344" stop-color="rgb(93.482971%, 20.292664%, 19.190979%)" stop-opacity="1"/>
<stop offset="0.40625" stop-color="rgb(93.37616%, 18.984985%, 19.277954%)" stop-opacity="1"/>
<stop offset="0.410156" stop-color="rgb(93.269348%, 17.694092%, 19.273376%)" stop-opacity="1"/>
<stop offset="0.414063" stop-color="rgb(93.164062%, 16.404724%, 19.271851%)" stop-opacity="1"/>
<stop offset="0.417969" stop-color="rgb(93.070984%, 15.267944%, 19.340515%)" stop-opacity="1"/>
<stop offset="0.421875" stop-color="rgb(92.977905%, 14.131165%, 19.410706%)" stop-opacity="1"/>
<stop offset="0.425781" stop-color="rgb(92.87262%, 12.840271%, 19.425964%)" stop-opacity="1"/>
<stop offset="0.429688" stop-color="rgb(92.767334%, 11.552429%, 19.444275%)" stop-opacity="1"/>
<stop offset="0.433594" stop-color="rgb(92.356873%, 10.821533%, 20.013428%)" stop-opacity="1"/>
<stop offset="0.4375" stop-color="rgb(91.947937%, 10.092163%, 20.570374%)" stop-opacity="1"/>
<stop offset="0.441406" stop-color="rgb(91.239929%, 10.121155%, 21.606445%)" stop-opacity="1"/>
<stop offset="0.445313" stop-color="rgb(90.52887%, 10.153198%, 22.645569%)" stop-opacity="1"/>
<stop offset="0.449219" stop-color="rgb(89.778137%, 10.189819%, 23.710632%)" stop-opacity="1"/>
<stop offset="0.453125" stop-color="rgb(89.025879%, 10.231018%, 24.780273%)" stop-opacity="1"/>
<stop offset="0.457031" stop-color="rgb(88.224792%, 10.108948%, 25.869751%)" stop-opacity="1"/>
<stop offset="0.460938" stop-color="rgb(87.423706%, 9.991455%, 26.953125%)" stop-opacity="1"/>
<stop offset="0.464844" stop-color="rgb(86.66687%, 10.041809%, 28.044128%)" stop-opacity="1"/>
<stop offset="0.46875" stop-color="rgb(85.905457%, 10.093689%, 29.138184%)" stop-opacity="1"/>
<stop offset="0.472656" stop-color="rgb(85.215759%, 10.139465%, 30.229187%)" stop-opacity="1"/>
<stop offset="0.476563" stop-color="rgb(84.52301%, 10.188293%, 31.32019%)" stop-opacity="1"/>
<stop offset="0.480469" stop-color="rgb(83.746338%, 10.090637%, 32.37915%)" stop-opacity="1"/>
<stop offset="0.484375" stop-color="rgb(82.969666%, 9.997559%, 33.433533%)" stop-opacity="1"/>
<stop offset="0.488281" stop-color="rgb(82.235718%, 10.073853%, 34.490967%)" stop-opacity="1"/>
<stop offset="0.492188" stop-color="rgb(81.498718%, 10.153198%, 35.549927%)" stop-opacity="1"/>
<stop offset="0.496094" stop-color="rgb(80.725098%, 10.198975%, 36.625671%)" stop-opacity="1"/>
<stop offset="0.5" stop-color="rgb(79.948425%, 10.249329%, 37.69989%)" stop-opacity="1"/>
<stop offset="0.503906" stop-color="rgb(79.129028%, 10.218811%, 38.780212%)" stop-opacity="1"/>
<stop offset="0.507812" stop-color="rgb(78.30658%, 10.191345%, 39.855957%)" stop-opacity="1"/>
<stop offset="0.511719" stop-color="rgb(77.633667%, 10.272217%, 40.937805%)" stop-opacity="1"/>
<stop offset="0.515625" stop-color="rgb(76.956177%, 10.354614%, 42.021179%)" stop-opacity="1"/>
<stop offset="0.519531" stop-color="rgb(76.133728%, 10.475159%, 43.093872%)" stop-opacity="1"/>
<stop offset="0.523438" stop-color="rgb(75.306702%, 10.597229%, 44.166565%)" stop-opacity="1"/>
<stop offset="0.527344" stop-color="rgb(74.507141%, 10.549927%, 45.202637%)" stop-opacity="1"/>
<stop offset="0.53125" stop-color="rgb(73.707581%, 10.507202%, 46.235657%)" stop-opacity="1"/>
<stop offset="0.535156" stop-color="rgb(72.947693%, 10.620117%, 47.344971%)" stop-opacity="1"/>
<stop offset="0.539063" stop-color="rgb(72.186279%, 10.734558%, 48.454285%)" stop-opacity="1"/>
<stop offset="0.542969" stop-color="rgb(71.391296%, 10.827637%, 49.536133%)" stop-opacity="1"/>
<stop offset="0.546875" stop-color="rgb(70.593262%, 10.925293%, 50.617981%)" stop-opacity="1"/>
<stop offset="0.550781" stop-color="rgb(69.857788%, 10.925293%, 51.635742%)" stop-opacity="1"/>
<stop offset="0.554688" stop-color="rgb(69.120789%, 10.928345%, 52.650452%)" stop-opacity="1"/>
<stop offset="0.558594" stop-color="rgb(68.319702%, 11.071777%, 53.739929%)" stop-opacity="1"/>
<stop offset="0.5625" stop-color="rgb(67.514038%, 11.218262%, 54.829407%)" stop-opacity="1"/>
<stop offset="0.566406" stop-color="rgb(66.664124%, 11.373901%, 55.944824%)" stop-opacity="1"/>
<stop offset="0.570313" stop-color="rgb(65.812683%, 11.531067%, 57.058716%)" stop-opacity="1"/>
<stop offset="0.574219" stop-color="rgb(64.924622%, 11.802673%, 57.662964%)" stop-opacity="1"/>
<stop offset="0.578125" stop-color="rgb(64.033508%, 12.07428%, 58.265686%)" stop-opacity="1"/>
<stop offset="0.582031" stop-color="rgb(62.832642%, 12.783813%, 58.534241%)" stop-opacity="1"/>
<stop offset="0.585938" stop-color="rgb(61.627197%, 13.485718%, 58.80127%)" stop-opacity="1"/>
<stop offset="0.589844" stop-color="rgb(60.545349%, 14.027405%, 58.998108%)" stop-opacity="1"/>
<stop offset="0.59375" stop-color="rgb(59.460449%, 14.562988%, 59.191895%)" stop-opacity="1"/>
<stop offset="0.597656" stop-color="rgb(58.380127%, 15.206909%, 59.448242%)" stop-opacity="1"/>
<stop offset="0.601562" stop-color="rgb(57.295227%, 15.841675%, 59.703064%)" stop-opacity="1"/>
<stop offset="0.605469" stop-color="rgb(56.214905%, 16.362%, 59.898376%)" stop-opacity="1"/>
<stop offset="0.609375" stop-color="rgb(55.128479%, 16.874695%, 60.092163%)" stop-opacity="1"/>
<stop offset="0.613281" stop-color="rgb(53.910828%, 17.504883%, 60.342407%)" stop-opacity="1"/>
<stop offset="0.617188" stop-color="rgb(52.687073%, 18.125916%, 60.591125%)" stop-opacity="1"/>
<stop offset="0.621094" stop-color="rgb(51.565552%, 18.629456%, 60.784912%)" stop-opacity="1"/>
<stop offset="0.625" stop-color="rgb(50.439453%, 19.128418%, 60.978699%)" stop-opacity="1"/>
<stop offset="0.628906" stop-color="rgb(49.34082%, 19.590759%, 61.155701%)" stop-opacity="1"/>
<stop offset="0.632812" stop-color="rgb(48.23761%, 20.046997%, 61.332703%)" stop-opacity="1"/>
<stop offset="0.636719" stop-color="rgb(47.119141%, 20.63446%, 61.587524%)" stop-opacity="1"/>
<stop offset="0.640625" stop-color="rgb(45.994568%, 21.212769%, 61.84082%)" stop-opacity="1"/>
<stop offset="0.644531" stop-color="rgb(44.729614%, 21.673584%, 62.016296%)" stop-opacity="1"/>
<stop offset="0.648438" stop-color="rgb(43.461609%, 22.12677%, 62.190247%)" stop-opacity="1"/>
<stop offset="0.652344" stop-color="rgb(42.332458%, 22.644043%, 62.417603%)" stop-opacity="1"/>
<stop offset="0.65625" stop-color="rgb(41.197205%, 23.152161%, 62.641907%)" stop-opacity="1"/>
<stop offset="0.660156" stop-color="rgb(40.068054%, 23.602295%, 62.834167%)" stop-opacity="1"/>
<stop offset="0.664063" stop-color="rgb(38.934326%, 24.043274%, 63.024902%)" stop-opacity="1"/>
<stop offset="0.667969" stop-color="rgb(37.689209%, 24.539185%, 63.243103%)" stop-opacity="1"/>
<stop offset="0.671875" stop-color="rgb(36.439514%, 25.02594%, 63.461304%)" stop-opacity="1"/>
<stop offset="0.675781" stop-color="rgb(35.241699%, 25.460815%, 63.652039%)" stop-opacity="1"/>
<stop offset="0.679688" stop-color="rgb(34.040833%, 25.886536%, 63.842773%)" stop-opacity="1"/>
<stop offset="0.683594" stop-color="rgb(32.884216%, 26.333618%, 64.051819%)" stop-opacity="1"/>
<stop offset="0.6875" stop-color="rgb(31.721497%, 26.773071%, 64.259338%)" stop-opacity="1"/>
<stop offset="0.691406" stop-color="rgb(30.563354%, 27.177429%, 64.450073%)" stop-opacity="1"/>
<stop offset="0.695313" stop-color="rgb(29.400635%, 27.575684%, 64.637756%)" stop-opacity="1"/>
<stop offset="0.699219" stop-color="rgb(29.200745%, 27.664185%, 64.683533%)" stop-opacity="1"/>
<stop offset="0.703125" stop-color="rgb(29.000854%, 27.75116%, 64.729309%)" stop-opacity="1"/>
<stop offset="0.71875" stop-color="rgb(29.000854%, 27.75116%, 64.729309%)" stop-opacity="1"/>
<stop offset="0.75" stop-color="rgb(29.000854%, 27.75116%, 64.729309%)" stop-opacity="1"/>
<stop offset="1" stop-color="rgb(29.000854%, 27.75116%, 64.729309%)" stop-opacity="1"/>
</linearGradient>
<clipPath id="clip-2">
<path clip-rule="nonzero" d="M 321 314 L 945 314 L 945 938 L 321 938 Z M 321 314 "/>
</clipPath>
<clipPath id="clip-3">
<path clip-rule="evenodd" d="M 791.710938 314.160156 L 474.125 314.160156 C 389.902344 314.160156 321 383.058594 321 467.28125 L 321 784.871094 C 321 869.089844 389.902344 938 474.125 938 L 791.710938 938 C 875.933594 938 944.839844 869.089844 944.839844 784.871094 L 944.839844 467.28125 C 944.839844 383.058594 875.933594 314.160156 791.710938 314.160156 "/>
</clipPath>
<linearGradient id="linear-pattern-1" gradientUnits="userSpaceOnUse" x1="-0.268879" y1="0" x2="1.380724" y2="0" gradientTransform="matrix(395.876, -358.637, 358.637, 395.876, 412.838, 825.45)">
<stop offset="0" stop-color="rgb(97.624207%, 71.235657%, 19.413757%)" stop-opacity="1"/>
<stop offset="0.125" stop-color="rgb(97.624207%, 71.235657%, 19.413757%)" stop-opacity="1"/>
<stop offset="0.15625" stop-color="rgb(97.624207%, 71.235657%, 19.413757%)" stop-opacity="1"/>
<stop offset="0.164062" stop-color="rgb(97.610474%, 71.070862%, 19.419861%)" stop-opacity="1"/>
<stop offset="0.167969" stop-color="rgb(97.512817%, 69.854736%, 19.302368%)" stop-opacity="1"/>
<stop offset="0.171875" stop-color="rgb(97.427368%, 68.807983%, 19.181824%)" stop-opacity="1"/>
<stop offset="0.175781" stop-color="rgb(97.329712%, 67.590332%, 19.229126%)" stop-opacity="1"/>
<stop offset="0.179687" stop-color="rgb(97.23053%, 66.372681%, 19.276428%)" stop-opacity="1"/>
<stop offset="0.183594" stop-color="rgb(97.132874%, 65.156555%, 19.169617%)" stop-opacity="1"/>
<stop offset="0.1875" stop-color="rgb(97.033691%, 63.94043%, 19.064331%)" stop-opacity="1"/>
<stop offset="0.191406" stop-color="rgb(96.948242%, 62.87384%, 19.108582%)" stop-opacity="1"/>
<stop offset="0.195312" stop-color="rgb(96.861267%, 61.807251%, 19.152832%)" stop-opacity="1"/>
<stop offset="0.199219" stop-color="rgb(96.763611%, 60.614014%, 19.05365%)" stop-opacity="1"/>
<stop offset="0.203125" stop-color="rgb(96.66748%, 59.420776%, 18.95752%)" stop-opacity="1"/>
<stop offset="0.207031" stop-color="rgb(96.569824%, 58.206177%, 19.010925%)" stop-opacity="1"/>
<stop offset="0.210937" stop-color="rgb(96.470642%, 56.990051%, 19.065857%)" stop-opacity="1"/>
<stop offset="0.214844" stop-color="rgb(96.372986%, 55.780029%, 18.977356%)" stop-opacity="1"/>
<stop offset="0.21875" stop-color="rgb(96.273804%, 54.570007%, 18.891907%)" stop-opacity="1"/>
<stop offset="0.222656" stop-color="rgb(96.18988%, 53.52478%, 18.940735%)" stop-opacity="1"/>
<stop offset="0.226562" stop-color="rgb(96.104431%, 52.479553%, 18.989563%)" stop-opacity="1"/>
<stop offset="0.230469" stop-color="rgb(96.006775%, 51.269531%, 18.934631%)" stop-opacity="1"/>
<stop offset="0.234375" stop-color="rgb(95.907593%, 50.061035%, 18.882751%)" stop-opacity="1"/>
<stop offset="0.238281" stop-color="rgb(95.809937%, 48.847961%, 18.917847%)" stop-opacity="1"/>
<stop offset="0.242187" stop-color="rgb(95.710754%, 47.634888%, 18.954468%)" stop-opacity="1"/>
<stop offset="0.246094" stop-color="rgb(95.620728%, 46.530151%, 18.881226%)" stop-opacity="1"/>
<stop offset="0.25" stop-color="rgb(95.530701%, 45.426941%, 18.809509%)" stop-opacity="1"/>
<stop offset="0.253906" stop-color="rgb(95.439148%, 44.282532%, 18.869019%)" stop-opacity="1"/>
<stop offset="0.257812" stop-color="rgb(95.346069%, 43.138123%, 18.928528%)" stop-opacity="1"/>
<stop offset="0.261719" stop-color="rgb(95.246887%, 41.93573%, 18.869019%)" stop-opacity="1"/>
<stop offset="0.265625" stop-color="rgb(95.149231%, 40.733337%, 18.811035%)" stop-opacity="1"/>
<stop offset="0.269531" stop-color="rgb(95.051575%, 39.52179%, 18.878174%)" stop-opacity="1"/>
<stop offset="0.273437" stop-color="rgb(94.952393%, 38.308716%, 18.945312%)" stop-opacity="1"/>
<stop offset="0.277344" stop-color="rgb(94.868469%, 37.277222%, 18.885803%)" stop-opacity="1"/>
<stop offset="0.28125" stop-color="rgb(94.784546%, 36.245728%, 18.82782%)" stop-opacity="1"/>
<stop offset="0.285156" stop-color="rgb(94.685364%, 35.035706%, 18.89801%)" stop-opacity="1"/>
<stop offset="0.289062" stop-color="rgb(94.587708%, 33.824158%, 18.968201%)" stop-opacity="1"/>
<stop offset="0.292969" stop-color="rgb(94.488525%, 32.624817%, 18.936157%)" stop-opacity="1"/>
<stop offset="0.296875" stop-color="rgb(94.390869%, 31.427002%, 18.907166%)" stop-opacity="1"/>
<stop offset="0.300781" stop-color="rgb(94.306946%, 30.386353%, 18.960571%)" stop-opacity="1"/>
<stop offset="0.304688" stop-color="rgb(94.221497%, 29.345703%, 19.015503%)" stop-opacity="1"/>
<stop offset="0.308594" stop-color="rgb(94.12384%, 28.146362%, 19.015503%)" stop-opacity="1"/>
<stop offset="0.3125" stop-color="rgb(94.026184%, 26.947021%, 19.017029%)" stop-opacity="1"/>
<stop offset="0.316406" stop-color="rgb(93.927002%, 25.743103%, 19.062805%)" stop-opacity="1"/>
<stop offset="0.320312" stop-color="rgb(93.829346%, 24.537659%, 19.108582%)" stop-opacity="1"/>
<stop offset="0.324219" stop-color="rgb(93.737793%, 23.416138%, 19.132996%)" stop-opacity="1"/>
<stop offset="0.328125" stop-color="rgb(93.64624%, 22.294617%, 19.158936%)" stop-opacity="1"/>
<stop offset="0.332031" stop-color="rgb(93.554688%, 21.183777%, 19.181824%)" stop-opacity="1"/>
<stop offset="0.335938" stop-color="rgb(93.464661%, 20.072937%, 19.206238%)" stop-opacity="1"/>
<stop offset="0.339844" stop-color="rgb(93.365479%, 18.869019%, 19.262695%)" stop-opacity="1"/>
<stop offset="0.34375" stop-color="rgb(93.267822%, 17.6651%, 19.320679%)" stop-opacity="1"/>
<stop offset="0.347656" stop-color="rgb(93.170166%, 16.471863%, 19.334412%)" stop-opacity="1"/>
<stop offset="0.351562" stop-color="rgb(93.07251%, 15.278625%, 19.34967%)" stop-opacity="1"/>
<stop offset="0.355469" stop-color="rgb(92.988586%, 14.259338%, 19.334412%)" stop-opacity="1"/>
<stop offset="0.359375" stop-color="rgb(92.904663%, 13.240051%, 19.322205%)" stop-opacity="1"/>
<stop offset="0.363281" stop-color="rgb(92.805481%, 12.034607%, 19.40918%)" stop-opacity="1"/>
<stop offset="0.367187" stop-color="rgb(92.707825%, 10.827637%, 19.496155%)" stop-opacity="1"/>
<stop offset="0.371094" stop-color="rgb(92.323303%, 10.458374%, 20.040894%)" stop-opacity="1"/>
<stop offset="0.375" stop-color="rgb(91.940308%, 10.090637%, 20.581055%)" stop-opacity="1"/>
<stop offset="0.378906" stop-color="rgb(91.439819%, 10.166931%, 21.287537%)" stop-opacity="1"/>
<stop offset="0.382812" stop-color="rgb(90.937805%, 10.244751%, 21.99707%)" stop-opacity="1"/>
<stop offset="0.386719" stop-color="rgb(90.457153%, 10.154724%, 22.689819%)" stop-opacity="1"/>
<stop offset="0.390625" stop-color="rgb(89.976501%, 10.067749%, 23.379517%)" stop-opacity="1"/>
<stop offset="0.394531" stop-color="rgb(89.506531%, 10.150146%, 24.07074%)" stop-opacity="1"/>
<stop offset="0.398437" stop-color="rgb(89.035034%, 10.23407%, 24.763489%)" stop-opacity="1"/>
<stop offset="0.402344" stop-color="rgb(88.548279%, 10.151672%, 25.456238%)" stop-opacity="1"/>
<stop offset="0.40625" stop-color="rgb(88.061523%, 10.070801%, 26.147461%)" stop-opacity="1"/>
<stop offset="0.410156" stop-color="rgb(87.535095%, 10.05249%, 26.869202%)" stop-opacity="1"/>
<stop offset="0.414062" stop-color="rgb(87.007141%, 10.03418%, 27.589417%)" stop-opacity="1"/>
<stop offset="0.417969" stop-color="rgb(86.480713%, 10.063171%, 28.341675%)" stop-opacity="1"/>
<stop offset="0.421875" stop-color="rgb(85.954285%, 10.095215%, 29.093933%)" stop-opacity="1"/>
<stop offset="0.425781" stop-color="rgb(85.562134%, 10.00824%, 29.771423%)" stop-opacity="1"/>
<stop offset="0.429687" stop-color="rgb(85.169983%, 9.921265%, 30.448914%)" stop-opacity="1"/>
<stop offset="0.433594" stop-color="rgb(84.646606%, 10.023499%, 31.181335%)" stop-opacity="1"/>
<stop offset="0.4375" stop-color="rgb(84.120178%, 10.125732%, 31.916809%)" stop-opacity="1"/>
<stop offset="0.441406" stop-color="rgb(83.584595%, 10.063171%, 32.63092%)" stop-opacity="1"/>
<stop offset="0.445312" stop-color="rgb(83.047485%, 10.003662%, 33.343506%)" stop-opacity="1"/>
<stop offset="0.449219" stop-color="rgb(82.514954%, 10.112%, 34.082031%)" stop-opacity="1"/>
<stop offset="0.453125" stop-color="rgb(81.982422%, 10.221863%, 34.823608%)" stop-opacity="1"/>
<stop offset="0.457031" stop-color="rgb(81.483459%, 10.165405%, 35.510254%)" stop-opacity="1"/>
<stop offset="0.460937" stop-color="rgb(80.981445%, 10.110474%, 36.196899%)" stop-opacity="1"/>
<stop offset="0.464844" stop-color="rgb(80.490112%, 10.154724%, 36.895752%)" stop-opacity="1"/>
<stop offset="0.46875" stop-color="rgb(79.998779%, 10.198975%, 37.597656%)" stop-opacity="1"/>
<stop offset="0.472656" stop-color="rgb(79.50592%, 10.218811%, 38.291931%)" stop-opacity="1"/>
<stop offset="0.476562" stop-color="rgb(79.011536%, 10.238647%, 38.986206%)" stop-opacity="1"/>
<stop offset="0.480469" stop-color="rgb(78.515625%, 10.224915%, 39.691162%)" stop-opacity="1"/>
<stop offset="0.484375" stop-color="rgb(78.018188%, 10.212708%, 40.396118%)" stop-opacity="1"/>
<stop offset="0.488281" stop-color="rgb(77.523804%, 10.292053%, 41.133118%)" stop-opacity="1"/>
<stop offset="0.492187" stop-color="rgb(77.026367%, 10.372925%, 41.870117%)" stop-opacity="1"/>
<stop offset="0.496094" stop-color="rgb(76.525879%, 10.327148%, 42.572021%)" stop-opacity="1"/>
<stop offset="0.5" stop-color="rgb(76.025391%, 10.284424%, 43.270874%)" stop-opacity="1"/>
<stop offset="0.503906" stop-color="rgb(75.500488%, 10.415649%, 44.007874%)" stop-opacity="1"/>
<stop offset="0.507812" stop-color="rgb(74.972534%, 10.546875%, 44.744873%)" stop-opacity="1"/>
<stop offset="0.511719" stop-color="rgb(74.421692%, 10.523987%, 45.420837%)" stop-opacity="1"/>
<stop offset="0.515625" stop-color="rgb(73.872375%, 10.501099%, 46.09375%)" stop-opacity="1"/>
<stop offset="0.519531" stop-color="rgb(73.323059%, 10.644531%, 46.824646%)" stop-opacity="1"/>
<stop offset="0.523437" stop-color="rgb(72.772217%, 10.787964%, 47.555542%)" stop-opacity="1"/>
<stop offset="0.527344" stop-color="rgb(72.241211%, 10.765076%, 48.23761%)" stop-opacity="1"/>
<stop offset="0.53125" stop-color="rgb(71.708679%, 10.743713%, 48.918152%)" stop-opacity="1"/>
<stop offset="0.535156" stop-color="rgb(71.203613%, 10.791016%, 49.641418%)" stop-opacity="1"/>
<stop offset="0.539062" stop-color="rgb(70.69397%, 10.839844%, 50.363159%)" stop-opacity="1"/>
<stop offset="0.542969" stop-color="rgb(70.217896%, 10.896301%, 51.087952%)" stop-opacity="1"/>
<stop offset="0.546875" stop-color="rgb(69.73877%, 10.954285%, 51.81427%)" stop-opacity="1"/>
<stop offset="0.550781" stop-color="rgb(69.197083%, 10.957336%, 52.503967%)" stop-opacity="1"/>
<stop offset="0.554687" stop-color="rgb(68.655396%, 10.961914%, 53.190613%)" stop-opacity="1"/>
<stop offset="0.558594" stop-color="rgb(68.1427%, 11.094666%, 53.918457%)" stop-opacity="1"/>
<stop offset="0.5625" stop-color="rgb(67.630005%, 11.227417%, 54.644775%)" stop-opacity="1"/>
<stop offset="0.566406" stop-color="rgb(67.118835%, 11.216736%, 55.305481%)" stop-opacity="1"/>
<stop offset="0.570312" stop-color="rgb(66.60614%, 11.209106%, 55.963135%)" stop-opacity="1"/>
<stop offset="0.574219" stop-color="rgb(66.079712%, 11.364746%, 56.704712%)" stop-opacity="1"/>
<stop offset="0.578125" stop-color="rgb(65.553284%, 11.51886%, 57.447815%)" stop-opacity="1"/>
<stop offset="0.582031" stop-color="rgb(64.944458%, 11.753845%, 57.847595%)" stop-opacity="1"/>
<stop offset="0.585937" stop-color="rgb(64.335632%, 11.988831%, 58.247375%)" stop-opacity="1"/>
<stop offset="0.589844" stop-color="rgb(63.549805%, 12.341309%, 58.363342%)" stop-opacity="1"/>
<stop offset="0.59375" stop-color="rgb(62.762451%, 12.689209%, 58.477783%)" stop-opacity="1"/>
<stop offset="0.597656" stop-color="rgb(62.089539%, 13.110352%, 58.642578%)" stop-opacity="1"/>
<stop offset="0.601562" stop-color="rgb(61.413574%, 13.528442%, 58.805847%)" stop-opacity="1"/>
<stop offset="0.605469" stop-color="rgb(60.652161%, 13.899231%, 58.938599%)" stop-opacity="1"/>
<stop offset="0.609375" stop-color="rgb(59.887695%, 14.268494%, 59.069824%)" stop-opacity="1"/>
<stop offset="0.613281" stop-color="rgb(59.239197%, 14.640808%, 59.214783%)" stop-opacity="1"/>
<stop offset="0.617187" stop-color="rgb(58.590698%, 15.010071%, 59.359741%)" stop-opacity="1"/>
<stop offset="0.621094" stop-color="rgb(57.78656%, 15.458679%, 59.535217%)" stop-opacity="1"/>
<stop offset="0.625" stop-color="rgb(56.980896%, 15.901184%, 59.709167%)" stop-opacity="1"/>
<stop offset="0.628906" stop-color="rgb(56.222534%, 16.2323%, 59.82666%)" stop-opacity="1"/>
<stop offset="0.632812" stop-color="rgb(55.461121%, 16.558838%, 59.944153%)" stop-opacity="1"/>
<stop offset="0.636719" stop-color="rgb(54.762268%, 16.938782%, 60.096741%)" stop-opacity="1"/>
<stop offset="0.640625" stop-color="rgb(54.06189%, 17.312622%, 60.246277%)" stop-opacity="1"/>
<stop offset="0.644531" stop-color="rgb(53.326416%, 17.729187%, 60.420227%)" stop-opacity="1"/>
<stop offset="0.648437" stop-color="rgb(52.586365%, 18.1427%, 60.592651%)" stop-opacity="1"/>
<stop offset="0.652344" stop-color="rgb(51.852417%, 18.431091%, 60.694885%)" stop-opacity="1"/>
<stop offset="0.65625" stop-color="rgb(51.116943%, 18.716431%, 60.797119%)" stop-opacity="1"/>
<stop offset="0.660156" stop-color="rgb(50.297546%, 19.114685%, 60.958862%)" stop-opacity="1"/>
<stop offset="0.664062" stop-color="rgb(49.475098%, 19.508362%, 61.120605%)" stop-opacity="1"/>
<stop offset="0.667969" stop-color="rgb(48.81134%, 19.805908%, 61.239624%)" stop-opacity="1"/>
<stop offset="0.671875" stop-color="rgb(48.146057%, 20.100403%, 61.357117%)" stop-opacity="1"/>
<stop offset="0.675781" stop-color="rgb(47.323608%, 20.454407%, 61.499023%)" stop-opacity="1"/>
<stop offset="0.679687" stop-color="rgb(46.498108%, 20.802307%, 61.637878%)" stop-opacity="1"/>
<stop offset="0.683594" stop-color="rgb(45.819092%, 21.174622%, 61.804199%)" stop-opacity="1"/>
<stop offset="0.6875" stop-color="rgb(45.137024%, 21.542358%, 61.97052%)" stop-opacity="1"/>
<stop offset="0.691406" stop-color="rgb(44.314575%, 21.827698%, 62.077332%)" stop-opacity="1"/>
<stop offset="0.695312" stop-color="rgb(43.490601%, 22.109985%, 62.182617%)" stop-opacity="1"/>
<stop offset="0.699219" stop-color="rgb(42.808533%, 22.439575%, 62.329102%)" stop-opacity="1"/>
<stop offset="0.703125" stop-color="rgb(42.124939%, 22.766113%, 62.475586%)" stop-opacity="1"/>
<stop offset="0.707031" stop-color="rgb(41.291809%, 23.072815%, 62.599182%)" stop-opacity="1"/>
<stop offset="0.710937" stop-color="rgb(40.458679%, 23.374939%, 62.722778%)" stop-opacity="1"/>
<stop offset="0.714844" stop-color="rgb(39.77356%, 23.670959%, 62.85553%)" stop-opacity="1"/>
<stop offset="0.71875" stop-color="rgb(39.086914%, 23.96698%, 62.986755%)" stop-opacity="1"/>
<stop offset="0.722656" stop-color="rgb(38.238525%, 24.316406%, 63.143921%)" stop-opacity="1"/>
<stop offset="0.726562" stop-color="rgb(37.388611%, 24.661255%, 63.298035%)" stop-opacity="1"/>
<stop offset="0.730469" stop-color="rgb(36.705017%, 24.909973%, 63.406372%)" stop-opacity="1"/>
<stop offset="0.734375" stop-color="rgb(36.019897%, 25.157166%, 63.514709%)" stop-opacity="1"/>
<stop offset="0.738281" stop-color="rgb(35.169983%, 25.465393%, 63.650513%)" stop-opacity="1"/>
<stop offset="0.742188" stop-color="rgb(34.318542%, 25.767517%, 63.78479%)" stop-opacity="1"/>
<stop offset="0.746094" stop-color="rgb(33.624268%, 26.036072%, 63.909912%)" stop-opacity="1"/>
<stop offset="0.75" stop-color="rgb(32.928467%, 26.300049%, 64.033508%)" stop-opacity="1"/>
<stop offset="0.753906" stop-color="rgb(32.073975%, 26.586914%, 64.161682%)" stop-opacity="1"/>
<stop offset="0.757812" stop-color="rgb(31.216431%, 26.870728%, 64.291382%)" stop-opacity="1"/>
<stop offset="0.761719" stop-color="rgb(30.479431%, 27.160645%, 64.433289%)" stop-opacity="1"/>
<stop offset="0.765625" stop-color="rgb(29.73938%, 27.44751%, 64.575195%)" stop-opacity="1"/>
<stop offset="0.769531" stop-color="rgb(29.370117%, 27.600098%, 64.651489%)" stop-opacity="1"/>
<stop offset="0.773438" stop-color="rgb(29.000854%, 27.75116%, 64.729309%)" stop-opacity="1"/>
<stop offset="0.78125" stop-color="rgb(29.000854%, 27.75116%, 64.729309%)" stop-opacity="1"/>
<stop offset="0.8125" stop-color="rgb(29.000854%, 27.75116%, 64.729309%)" stop-opacity="1"/>
<stop offset="0.875" stop-color="rgb(29.000854%, 27.75116%, 64.729309%)" stop-opacity="1"/>
<stop offset="1" stop-color="rgb(29.000854%, 27.75116%, 64.729309%)" stop-opacity="1"/>
</linearGradient>
</defs>
<path fill-rule="evenodd" fill="rgb(100%, 100%, 100%)" fill-opacity="1" d="M 2069.28125 2069.28125 L 0 2069.28125 L 0 0 L 2069.28125 0 L 2069.28125 2069.28125 "/>
<g clip-path="url(#clip-0)">
<g clip-path="url(#clip-1)">
<path fill-rule="nonzero" fill="url(#linear-pattern-0)" d="M 790.503906 625.628906 L 1477.949219 1313.964844 L 2166.285156 626.523438 L 1478.84375 -61.816406 Z M 790.503906 625.628906 "/>
</g>
</g>
<path fill-rule="evenodd" fill="rgb(100%, 100%, 100%)" fill-opacity="1" d="M 1589.308594 540.621094 C 1601.890625 540.621094 1612.148438 530.359375 1612.148438 517.78125 C 1612.148438 505.199219 1601.890625 494.941406 1589.308594 494.941406 C 1576.730469 494.941406 1566.46875 505.199219 1566.46875 517.78125 C 1566.46875 530.359375 1576.730469 540.621094 1589.308594 540.621094 Z M 1524.851562 579.621094 C 1512.96875 567.738281 1496.539062 560.390625 1478.398438 560.390625 C 1460.25 560.390625 1443.820312 567.738281 1431.941406 579.621094 C 1420.058594 591.511719 1412.710938 607.929688 1412.710938 626.078125 C 1412.710938 644.21875 1420.058594 660.648438 1431.941406 672.53125 C 1443.820312 684.410156 1460.25 691.769531 1478.398438 691.769531 C 1496.539062 691.769531 1512.96875 684.410156 1524.851562 672.53125 C 1536.730469 660.648438 1544.089844 644.21875 1544.089844 626.078125 C 1544.089844 607.929688 1536.730469 591.511719 1524.851562 579.621094 Z M 1478.398438 525.679688 C 1506.109375 525.679688 1531.21875 536.921875 1549.378906 555.089844 C 1567.550781 573.261719 1578.789062 598.359375 1578.789062 626.078125 C 1578.789062 653.800781 1567.550781 678.898438 1549.378906 697.070312 C 1531.21875 715.238281 1506.109375 726.46875 1478.398438 726.46875 C 1450.679688 726.46875 1425.578125 715.238281 1407.410156 697.070312 C 1389.238281 678.898438 1378 653.800781 1378 626.078125 C 1378 598.359375 1389.238281 573.261719 1407.410156 555.089844 C 1425.578125 536.921875 1450.679688 525.679688 1478.398438 525.679688 Z M 1568.359375 454.351562 L 1388.429688 454.351562 C 1365.960938 454.351562 1345.519531 463.558594 1330.699219 478.378906 C 1315.871094 493.199219 1306.671875 513.648438 1306.671875 536.121094 L 1306.671875 716.039062 C 1306.671875 738.511719 1315.871094 758.949219 1330.699219 773.769531 C 1345.519531 788.601562 1365.960938 797.800781 1388.429688 797.800781 L 1568.359375 797.800781 C 1590.820312 797.800781 1611.269531 788.601562 1626.089844 773.78125 C 1640.921875 758.949219 1650.121094 738.511719 1650.121094 716.039062 L 1650.121094 536.121094 C 1650.121094 513.648438 1640.921875 493.199219 1626.089844 478.378906 C 1611.269531 463.558594 1590.820312 454.351562 1568.359375 454.351562 Z M 1388.429688 419.640625 L 1568.359375 419.640625 C 1600.398438 419.640625 1629.519531 432.75 1650.621094 453.851562 C 1671.730469 474.949219 1684.828125 504.070312 1684.828125 536.121094 L 1684.828125 716.039062 C 1684.828125 748.078125 1671.730469 777.210938 1650.628906 798.308594 C 1629.519531 819.410156 1600.398438 832.511719 1568.359375 832.511719 L 1388.429688 832.511719 C 1356.390625 832.511719 1327.261719 819.410156 1306.160156 798.308594 C 1285.058594 777.210938 1271.960938 748.078125 1271.960938 716.039062 L 1271.960938 536.121094 C 1271.960938 504.070312 1285.058594 474.949219 1306.160156 453.851562 C 1327.261719 432.75 1356.390625 419.640625 1388.429688 419.640625 "/>
<g clip-path="url(#clip-2)">
<g clip-path="url(#clip-3)">
<path fill-rule="nonzero" fill="url(#linear-pattern-1)" d="M 10.59375 595.363281 L 602.203125 1248.402344 L 1255.242188 656.792969 L 663.632812 3.757812 Z M 10.59375 595.363281 "/>
</g>
</g>
<path fill-rule="evenodd" fill="rgb(100%, 100%, 100%)" fill-opacity="1" d="M 756.328125 531 C 770.320312 531 781.734375 519.589844 781.734375 505.589844 C 781.734375 491.601562 770.320312 480.179688 756.328125 480.179688 C 742.332031 480.179688 730.914062 491.601562 730.914062 505.589844 C 730.914062 519.589844 742.332031 531 756.328125 531 Z M 684.601562 574.398438 C 671.382812 561.171875 653.105469 552.988281 632.917969 552.988281 C 612.730469 552.988281 594.453125 561.171875 581.238281 574.398438 C 568.015625 587.609375 559.835938 605.890625 559.835938 626.078125 C 559.835938 646.261719 568.015625 664.539062 581.238281 677.761719 C 594.453125 690.980469 612.730469 699.160156 632.917969 699.160156 C 653.105469 699.160156 671.382812 690.980469 684.601562 677.761719 C 697.824219 664.539062 706.003906 646.261719 706.003906 626.078125 C 706.003906 605.890625 697.824219 587.609375 684.601562 574.398438 Z M 632.917969 514.378906 C 663.757812 514.378906 691.6875 526.878906 711.898438 547.101562 C 732.113281 567.308594 744.621094 595.238281 744.621094 626.078125 C 744.621094 656.921875 732.113281 684.839844 711.898438 705.058594 C 691.6875 725.269531 663.757812 737.78125 632.917969 737.78125 C 602.078125 737.78125 574.152344 725.269531 553.941406 705.058594 C 533.722656 684.839844 521.21875 656.921875 521.21875 626.078125 C 521.21875 595.238281 533.722656 567.308594 553.941406 547.101562 C 574.152344 526.878906 602.078125 514.378906 632.917969 514.378906 Z M 733.007812 435.019531 L 532.828125 435.019531 C 507.832031 435.019531 485.089844 445.261719 468.597656 461.761719 C 452.105469 478.238281 441.863281 500.988281 441.863281 525.988281 L 441.863281 726.160156 C 441.863281 751.160156 452.105469 773.910156 468.597656 790.398438 C 485.089844 806.890625 507.832031 817.128906 532.828125 817.128906 L 733.007812 817.128906 C 758.007812 817.128906 780.746094 806.890625 797.242188 790.398438 C 813.734375 773.910156 823.972656 751.160156 823.972656 726.160156 L 823.972656 525.988281 C 823.972656 500.988281 813.734375 478.238281 797.242188 461.761719 C 780.746094 445.261719 758.003906 435.019531 733.007812 435.019531 Z M 532.828125 396.410156 L 733.007812 396.410156 C 768.660156 396.410156 801.0625 410.980469 824.535156 434.460938 C 848.011719 457.929688 862.589844 490.339844 862.589844 525.988281 L 862.589844 726.160156 C 862.589844 761.808594 848.011719 794.21875 824.539062 817.699219 C 801.0625 841.171875 768.660156 855.75 733.007812 855.75 L 532.828125 855.75 C 497.183594 855.75 464.773438 841.171875 441.300781 817.699219 C 417.824219 794.21875 403.246094 761.808594 403.246094 726.160156 L 403.246094 525.988281 C 403.246094 490.339844 417.824219 457.929688 441.300781 434.460938 C 464.773438 410.980469 497.183594 396.410156 532.828125 396.410156 "/>
<path fill-rule="evenodd" fill="rgb(6.459045%, 5.915833%, 5.220032%)" fill-opacity="1" d="M 1403.699219 1182.371094 C 1237.128906 1223.449219 1134.449219 1393.351562 1175.53125 1559.929688 C 1216.609375 1726.511719 1386.511719 1829.179688 1553.089844 1788.101562 C 1719.660156 1747.019531 1822.339844 1577.121094 1781.261719 1410.539062 C 1740.179688 1243.960938 1570.28125 1141.289062 1403.699219 1182.371094 "/>
<path fill-rule="evenodd" fill="rgb(100%, 100%, 100%)" fill-opacity="1" d="M 1589.308594 1399.78125 C 1601.890625 1399.78125 1612.148438 1389.519531 1612.148438 1376.941406 C 1612.148438 1364.359375 1601.890625 1354.101562 1589.308594 1354.101562 C 1576.730469 1354.101562 1566.46875 1364.359375 1566.46875 1376.941406 C 1566.46875 1389.519531 1576.730469 1399.78125 1589.308594 1399.78125 Z M 1524.851562 1438.78125 C 1512.96875 1426.898438 1496.539062 1419.550781 1478.398438 1419.550781 C 1460.25 1419.550781 1443.820312 1426.898438 1431.941406 1438.78125 C 1420.058594 1450.660156 1412.710938 1467.089844 1412.710938 1485.238281 C 1412.710938 1503.378906 1420.058594 1519.808594 1431.941406 1531.691406 C 1443.820312 1543.570312 1460.25 1550.929688 1478.398438 1550.929688 C 1496.539062 1550.929688 1512.96875 1543.570312 1524.851562 1531.691406 C 1536.730469 1519.808594 1544.089844 1503.378906 1544.089844 1485.238281 C 1544.089844 1467.089844 1536.730469 1450.660156 1524.851562 1438.78125 Z M 1478.398438 1384.839844 C 1506.109375 1384.839844 1531.21875 1396.078125 1549.378906 1414.25 C 1567.550781 1432.421875 1578.789062 1457.519531 1578.789062 1485.238281 C 1578.789062 1512.949219 1567.550781 1538.058594 1549.378906 1556.21875 C 1531.21875 1574.390625 1506.109375 1585.628906 1478.398438 1585.628906 C 1450.679688 1585.628906 1425.578125 1574.390625 1407.410156 1556.21875 C 1389.238281 1538.058594 1378 1512.949219 1378 1485.238281 C 1378 1457.519531 1389.238281 1432.421875 1407.410156 1414.25 C 1425.578125 1396.078125 1450.679688 1384.839844 1478.398438 1384.839844 Z M 1568.359375 1313.511719 L 1388.429688 1313.511719 C 1365.960938 1313.511719 1345.519531 1322.710938 1330.699219 1337.539062 C 1315.871094 1352.359375 1306.671875 1372.800781 1306.671875 1395.269531 L 1306.671875 1575.199219 C 1306.671875 1597.671875 1315.871094 1618.109375 1330.699219 1632.929688 C 1345.519531 1647.761719 1365.960938 1656.960938 1388.429688 1656.960938 L 1568.359375 1656.960938 C 1590.820312 1656.960938 1611.269531 1647.761719 1626.089844 1632.929688 C 1640.921875 1618.109375 1650.121094 1597.671875 1650.121094 1575.199219 L 1650.121094 1395.269531 C 1650.121094 1372.800781 1640.921875 1352.359375 1626.089844 1337.539062 C 1611.269531 1322.710938 1590.820312 1313.511719 1568.359375 1313.511719 Z M 1388.429688 1278.800781 L 1568.359375 1278.800781 C 1600.398438 1278.800781 1629.519531 1291.898438 1650.621094 1313 C 1671.730469 1334.101562 1684.828125 1363.230469 1684.828125 1395.269531 L 1684.828125 1575.199219 C 1684.828125 1607.238281 1671.730469 1636.371094 1650.628906 1657.46875 C 1629.519531 1678.558594 1600.398438 1691.671875 1568.359375 1691.671875 L 1388.429688 1691.671875 C 1356.390625 1691.671875 1327.261719 1678.558594 1306.160156 1657.46875 C 1285.058594 1636.371094 1271.960938 1607.238281 1271.960938 1575.199219 L 1271.960938 1395.269531 C 1271.960938 1363.230469 1285.058594 1334.101562 1306.160156 1313 C 1327.261719 1291.898438 1356.390625 1278.800781 1388.429688 1278.800781 "/>
<path fill-rule="evenodd" fill="rgb(6.459045%, 5.915833%, 5.220032%)" fill-opacity="1" d="M 791.710938 1173.308594 L 474.125 1173.308594 C 389.902344 1173.308594 321 1242.21875 321 1326.441406 L 321 1644.03125 C 321 1728.25 389.902344 1797.148438 474.125 1797.148438 L 791.710938 1797.148438 C 875.933594 1797.148438 944.839844 1728.25 944.839844 1644.03125 L 944.839844 1326.441406 C 944.839844 1242.21875 875.933594 1173.308594 791.710938 1173.308594 "/>
<path fill-rule="evenodd" fill="rgb(100%, 100%, 100%)" fill-opacity="1" d="M 756.328125 1390.160156 C 770.320312 1390.160156 781.734375 1378.738281 781.734375 1364.75 C 781.734375 1350.75 770.320312 1339.339844 756.328125 1339.339844 C 742.332031 1339.339844 730.914062 1350.75 730.914062 1364.75 C 730.914062 1378.738281 742.332031 1390.160156 756.328125 1390.160156 Z M 684.601562 1433.550781 C 671.382812 1420.328125 653.105469 1412.148438 632.917969 1412.148438 C 612.730469 1412.148438 594.453125 1420.328125 581.238281 1433.550781 C 568.015625 1446.769531 559.835938 1465.050781 559.835938 1485.238281 C 559.835938 1505.421875 568.015625 1523.699219 581.238281 1536.921875 C 594.453125 1550.140625 612.730469 1558.320312 632.917969 1558.320312 C 653.105469 1558.320312 671.382812 1550.140625 684.601562 1536.921875 C 697.824219 1523.699219 706.003906 1505.421875 706.003906 1485.238281 C 706.003906 1465.050781 697.824219 1446.769531 684.601562 1433.550781 Z M 632.917969 1373.539062 C 663.757812 1373.539062 691.6875 1386.039062 711.898438 1406.261719 C 732.113281 1426.46875 744.621094 1454.390625 744.621094 1485.238281 C 744.621094 1516.070312 732.113281 1544 711.898438 1564.210938 C 691.6875 1584.429688 663.757812 1596.929688 632.917969 1596.929688 C 602.078125 1596.929688 574.152344 1584.429688 553.941406 1564.210938 C 533.722656 1544 521.21875 1516.070312 521.21875 1485.238281 C 521.21875 1454.390625 533.722656 1426.46875 553.941406 1406.261719 C 574.152344 1386.039062 602.078125 1373.539062 632.917969 1373.539062 Z M 733.007812 1294.179688 L 532.828125 1294.179688 C 507.832031 1294.179688 485.089844 1304.421875 468.597656 1320.910156 C 452.105469 1337.398438 441.863281 1360.148438 441.863281 1385.148438 L 441.863281 1585.320312 C 441.863281 1610.320312 452.105469 1633.070312 468.597656 1649.558594 C 485.089844 1666.050781 507.832031 1676.289062 532.828125 1676.289062 L 733.007812 1676.289062 C 758.007812 1676.289062 780.746094 1666.050781 797.242188 1649.558594 C 813.734375 1633.070312 823.972656 1610.320312 823.972656 1585.320312 L 823.972656 1385.148438 C 823.972656 1360.148438 813.734375 1337.398438 797.242188 1320.910156 C 780.746094 1304.421875 758.003906 1294.179688 733.007812 1294.179688 Z M 532.828125 1255.558594 L 733.007812 1255.558594 C 768.660156 1255.558594 801.0625 1270.140625 824.535156 1293.621094 C 848.011719 1317.089844 862.589844 1349.5 862.589844 1385.148438 L 862.589844 1585.320312 C 862.589844 1620.96875 848.011719 1653.378906 824.539062 1676.851562 C 801.0625 1700.328125 768.660156 1714.910156 733.007812 1714.910156 L 532.828125 1714.910156 C 497.183594 1714.910156 464.773438 1700.328125 441.300781 1676.851562 C 417.824219 1653.378906 403.246094 1620.96875 403.246094 1585.320312 L 403.246094 1385.148438 C 403.246094 1349.5 417.824219 1317.089844 441.300781 1293.621094 C 464.773438 1270.140625 497.183594 1255.558594 532.828125 1255.558594 "/>
</svg>
